<?xml version="1.0" encoding="utf-8"?>
<!-- Generator: Adobe Illustrator 23.0.1, SVG Export Plug-In . SVG Version: 6.00 Build 0)  -->
<svg version="1.1" id="Layer_1" xmlns="http://www.w3.org/2000/svg" xmlns:xlink="http://www.w3.org/1999/xlink" x="0px" y="0px"
	 viewBox="0 0 464.8 470.2" style="enable-background:new 0 0 464.8 470.2;" xml:space="preserve">
<style type="text/css">
	.st0{fill:#2C2C2C;}
	.st1{fill-rule:evenodd;clip-rule:evenodd;fill:#FFFFFF;}
</style>
<g>
	<g>
		<path class="st0" d="M232.5,451.7c-119.2,0-216.2-97-216.2-216.2c0-119.2,97-216.2,216.2-216.2c119.2,0,216.2,97,216.2,216.2
			S351.7,451.7,232.5,451.7z"/>
	</g>
	<g>
		<path class="st1" d="M198.6,236.5v125.3c0,1.8,1.5,3.3,3.3,3.3h46.5c1.8,0,3.3-1.5,3.3-3.3V234.5h33.7c1.7,0,3.1-1.3,3.2-3
			l3.2-38.4c0.2-1.9-1.3-3.5-3.2-3.5h-37v-27.2c0-6.4,5.2-11.6,11.6-11.6h26c1.8,0,3.3-1.5,3.3-3.3v-38.4c0-1.8-1.5-3.3-3.3-3.3
			h-43.9c-25.8,0-46.7,20.9-46.7,46.7v37h-23.3c-1.8,0-3.3,1.5-3.3,3.3v38.4c0,1.8,1.5,3.3,3.3,3.3h23.3L198.6,236.5L198.6,236.5z"
			/>
	</g>
</g>
</svg>
