<?xml version="1.0" encoding="utf-8"?>
<!-- Generator: Adobe Illustrator 23.0.1, SVG Export Plug-In . SVG Version: 6.00 Build 0)  -->
<svg version="1.1" id="Layer_1" xmlns="http://www.w3.org/2000/svg" xmlns:xlink="http://www.w3.org/1999/xlink" x="0px" y="0px"
	 viewBox="0 0 464.79 470.18" style="enable-background:new 0 0 464.79 470.18;" xml:space="preserve">
<style type="text/css">
	.st0{fill:#66D4C5;}
	.st1{fill-rule:evenodd;clip-rule:evenodd;fill:#FFFFFF;}
</style>
<g>
	<g>
		<path class="st0" d="M232.46,451.67c-119.21,0-216.19-96.98-216.19-216.18c0-119.21,96.98-216.18,216.19-216.18
			c119.2,0,216.18,96.98,216.18,216.18C448.64,354.69,351.66,451.67,232.46,451.67z"/>
	</g>
	<g>
		<path class="st1" d="M198.56,236.51v125.3c0,1.8,1.46,3.26,3.26,3.26h46.53c1.8,0,3.26-1.46,3.26-3.26V234.47h33.73
			c1.7,0,3.11-1.3,3.25-2.99l3.24-38.37c0.16-1.9-1.34-3.54-3.25-3.54h-36.98v-27.22c0-6.38,5.17-11.55,11.55-11.55h26
			c1.8,0,3.26-1.46,3.26-3.26v-38.37c0-1.8-1.46-3.26-3.26-3.26h-43.93c-25.78,0-46.68,20.9-46.68,46.68v36.99h-23.26
			c-1.8,0-3.26,1.46-3.26,3.26v38.37c0,1.8,1.46,3.26,3.26,3.26h23.26V236.51z"/>
	</g>
</g>
</svg>
