<?xml version="1.0" encoding="utf-8"?>
<!-- Generator: Adobe Illustrator 23.0.1, SVG Export Plug-In . SVG Version: 6.00 Build 0)  -->
<svg version="1.1" id="Layer_1" xmlns="http://www.w3.org/2000/svg" xmlns:xlink="http://www.w3.org/1999/xlink" x="0px" y="0px"
	 viewBox="0 0 464.8 470.2" style="enable-background:new 0 0 464.8 470.2;" xml:space="preserve">
<style type="text/css">
	.st0{fill:#FFFFFF;}
	.st1{fill:#A477E2;}
</style>
<g>
	<circle class="st0" cx="232" cy="238" r="189.4"/>
	<g>
		<path class="st1" d="M232.2,456C113,456,16,359,16,239.8S113,23.6,232.2,23.6s216.2,97,216.2,216.2C448.4,359,351.4,456,232.2,456
			z M305.1,152.1c-8.8,0-16,7.2-16,16c0,8.8,7.2,16,16,16s16-7.2,16-16C321.1,159.3,313.9,152.1,305.1,152.1z M234,172.6
			c-37.1,0-67.2,30.1-67.2,67.2S196.9,307,234,307s67.2-30.1,67.2-67.2S271,172.6,234,172.6z M234,282.9c-23.7,0-43.1-19.3-43.1-43
			s19.3-43,43.1-43c23.7,0,43,19.3,43,43S257.7,282.9,234,282.9z M369.6,184c0-45.3-36.7-82-82-82H179.4c-45.3,0-82,36.7-82,82
			v108.2c0,45.3,36.7,82,82,82h108.2c45.3,0,82-36.7,82-82V184z M343.9,292.1c0,31.1-25.2,56.3-56.3,56.3H179.4
			c-31.1,0-56.3-25.2-56.3-56.3V184c0-31.1,25.2-56.3,56.3-56.3h108.2c31.1,0,56.3,25.2,56.3,56.3L343.9,292.1L343.9,292.1z"/>
	</g>
</g>
</svg>
