<?xml version="1.0" encoding="utf-8"?>
<!-- Generator: Adobe Illustrator 23.0.1, SVG Export Plug-In . SVG Version: 6.00 Build 0)  -->
<svg version="1.1" id="Layer_1" xmlns="http://www.w3.org/2000/svg" xmlns:xlink="http://www.w3.org/1999/xlink" x="0px" y="0px"
	 viewBox="0 0 464.79 470.18" style="enable-background:new 0 0 464.79 470.18;" xml:space="preserve">
<style type="text/css">
	.st0{fill:#FFFFFF;}
	.st1{fill:#66D4C5;}
</style>
<g>
	<circle class="st0" cx="232.02" cy="237.98" r="189.36"/>
	<g>
		<path class="st1" d="M232.19,456C112.99,456,16,359.02,16,239.82c0-119.2,96.98-216.18,216.18-216.18s216.18,96.98,216.18,216.18
			C448.37,359.02,351.39,456,232.19,456z M305.08,152.1c-8.83,0-16,7.16-16,16c0,8.83,7.16,16,16,16s16-7.16,16-16
			C321.08,159.27,313.92,152.1,305.08,152.1z M233.96,172.62c-37.05,0-67.2,30.15-67.2,67.2s30.15,67.2,67.2,67.2
			c37.05,0,67.2-30.15,67.2-67.2S271.02,172.62,233.96,172.62z M233.96,282.86c-23.74,0-43.05-19.31-43.05-43.05
			s19.31-43.04,43.05-43.04c23.73,0,43.04,19.31,43.04,43.04S257.7,282.86,233.96,282.86z M369.56,183.97
			c0-45.27-36.7-81.96-81.97-81.96H179.41c-45.27,0-81.97,36.7-81.97,81.96v108.19c0,45.27,36.7,81.96,81.97,81.96h108.18
			c45.27,0,81.97-36.7,81.97-81.96V183.97z M343.89,292.15c0,31.09-25.2,56.29-56.3,56.29H179.41c-31.09,0-56.3-25.2-56.3-56.29
			V183.97c0-31.09,25.2-56.29,56.3-56.29h108.18c31.09,0,56.3,25.2,56.3,56.29V292.15z"/>
	</g>
</g>
</svg>
