<?xml version="1.0" encoding="utf-8"?>
<!-- Generator: Adobe Illustrator 23.0.1, SVG Export Plug-In . SVG Version: 6.00 Build 0)  -->
<svg version="1.1" id="Layer_1" xmlns="http://www.w3.org/2000/svg" xmlns:xlink="http://www.w3.org/1999/xlink" x="0px" y="0px"
	 viewBox="0 0 464.79 470.18" style="enable-background:new 0 0 464.79 470.18;" xml:space="preserve">
<style type="text/css">
	.st0{fill:#66D4C5;}
	.st1{fill:#FFFFFF;}
</style>
<g>
	<g>
		<g>
			<path class="st0" d="M232.42,451.73c-119.21,0-216.19-96.98-216.19-216.18c0-119.2,96.98-216.18,216.19-216.18
				c119.2,0,216.18,96.98,216.18,216.18C448.61,354.75,351.63,451.73,232.42,451.73z"/>
		</g>
		<g>
			<g>
				<path class="st1" d="M354.64,252.01v80.72c0,1.99-1.62,3.61-3.61,3.61h-41.67c-1.99,0-3.61-1.62-3.61-3.61v-75.07
					c0-19.76-7.06-33.25-24.76-33.25c-13.51,0-21.53,9.08-25.08,17.88c-1.29,3.14-1.62,7.51-1.62,11.92v78.52
					c0,1.99-1.62,3.61-3.61,3.61h-41.66c-2,0-3.62-1.61-3.61-3.61c0.09-19.99,0.51-116.99,0.09-139.79
					c-0.04-2.02,1.59-3.65,3.61-3.65h41.58c1.99,0,3.61,1.62,3.61,3.61v17.23c-0.1,0.16-0.24,0.32-0.32,0.48h0.32v-0.48
					c6.5-10,18.09-24.29,44.07-24.29C330.52,185.83,354.64,206.85,354.64,252.01L354.64,252.01z M133.09,336.34h41.66
					c1.99,0,3.61-1.62,3.61-3.61V192.89c0-1.99-1.62-3.61-3.61-3.61h-41.66c-1.99,0-3.61,1.62-3.61,3.61v139.83
					C129.47,334.72,131.09,336.34,133.09,336.34z"/>
			</g>
		</g>
	</g>
	<g>
		<circle class="st1" cx="152.45" cy="144.41" r="26.17"/>
	</g>
</g>
</svg>
