<?xml version="1.0" encoding="utf-8"?>
<!-- Generator: Adobe Illustrator 23.0.1, SVG Export Plug-In . SVG Version: 6.00 Build 0)  -->
<svg version="1.1" id="Layer_1" xmlns="http://www.w3.org/2000/svg" xmlns:xlink="http://www.w3.org/1999/xlink" x="0px" y="0px"
	 viewBox="0 0 464.8 470.2" style="enable-background:new 0 0 464.8 470.2;" xml:space="preserve">
<style type="text/css">
	.st0{fill:#F09CC2;}
	.st1{fill:#FFFFFF;}
</style>
<g>
	<g>
		<g>
			<path class="st0" d="M232.4,451.7c-119.2,0-216.2-97-216.2-216.2s97-216.2,216.2-216.2c119.2,0,216.2,97,216.2,216.2
				C448.6,354.7,351.6,451.7,232.4,451.7z"/>
		</g>
		<g>
			<g>
				<path class="st1" d="M354.6,252v80.7c0,2-1.6,3.6-3.6,3.6h-41.7c-2,0-3.6-1.6-3.6-3.6v-75.1c0-19.8-7.1-33.2-24.8-33.2
					c-13.5,0-21.5,9.1-25.1,17.9c-1.3,3.1-1.6,7.5-1.6,11.9v78.5c0,2-1.6,3.6-3.6,3.6H209c-2,0-3.6-1.6-3.6-3.6
					c0.1-20,0.5-117,0.1-139.8c0-2,1.6-3.6,3.6-3.6h41.6c2,0,3.6,1.6,3.6,3.6v17.2c-0.1,0.2-0.2,0.3-0.3,0.5h0.3v-0.5
					c6.5-10,18.1-24.3,44.1-24.3C330.5,185.8,354.6,206.8,354.6,252L354.6,252z M133.1,336.3h41.7c2,0,3.6-1.6,3.6-3.6V192.9
					c0-2-1.6-3.6-3.6-3.6h-41.7c-2,0-3.6,1.6-3.6,3.6v139.8C129.5,334.7,131.1,336.3,133.1,336.3z"/>
			</g>
		</g>
	</g>
	<g>
		<circle class="st1" cx="152.4" cy="144.4" r="26.2"/>
	</g>
</g>
</svg>
